<?xml version="1.0" standalone="no"?>
<!DOCTYPE svg PUBLIC "-//W3C//DTD SVG 20010904//EN"
 "http://www.w3.org/TR/2001/REC-SVG-20010904/DTD/svg10.dtd">
<svg version="1.0" xmlns="http://www.w3.org/2000/svg"
 width="300.000000pt" height="225.000000pt" viewBox="0 0 300.000000 225.000000"
 preserveAspectRatio="xMidYMid meet">
<metadata>
Created by potrace 1.10, written by Peter Selinger 2001-2011
</metadata>
<g transform="translate(0.000000,225.000000) scale(0.100000,-0.100000)"
fill="#000000" stroke="none">
<path d="M1449 2171 c-21 -7 -278 -147 -624 -341 -16 -9 -66 -36 -110 -60
-111 -60 -141 -85 -164 -134 -20 -41 -21 -59 -21 -509 0 -509 0 -505 57 -562
37 -36 810 -467 870 -485 59 -18 97 -5 258 84 72 40 218 121 325 181 327 181
373 210 400 251 l25 38 3 479 c2 468 2 481 -18 522 -24 50 -54 75 -165 135
-44 24 -93 51 -110 60 -624 349 -654 364 -726 341z m178 -252 c70 -39 162 -90
203 -113 41 -23 135 -76 208 -116 72 -41 132 -76 132 -79 -1 -9 -655 -371
-670 -371 -15 0 -670 362 -670 371 0 5 172 103 430 245 72 39 197 110 237 133
1 1 59 -31 130 -70z m-767 -546 c69 -39 145 -81 170 -95 25 -13 120 -66 213
-117 l167 -93 0 -367 c0 -202 -3 -371 -7 -374 -7 -8 -16 -3 -476 253 l-207
115 0 378 c0 208 3 376 8 374 4 -3 63 -36 132 -74z"/>
</g>
</svg>
